<svg width="40" height="40" viewBox="20 35 50 40" xmlns="http://www.w3.org/2000/svg">

  
  <!-- Thela Cart Base -->
  <rect x="25" y="45" width="35" height="18" rx="2" fill="#DC2626" stroke="#B91C1C" stroke-width="1"/>
  
  <!-- Cart Handle -->
  <path d="M25 53 L15 53 L15 48 L20 48" stroke="#8B5CF6" stroke-width="3" stroke-linecap="round" fill="none"/>
  
  <!-- Cart Wheels -->
  <circle cx="30" cy="68" r="5" fill="#374151" stroke="#111827" stroke-width="1"/>
  <circle cx="55" cy="68" r="5" fill="#374151" stroke="#111827" stroke-width="1"/>
  
  <!-- Wheel Spokes -->
  <circle cx="30" cy="68" r="2" fill="#6B7280"/>
  <circle cx="55" cy="68" r="2" fill="#6B7280"/>
  
  <!-- Vegetables in Cart -->
  <!-- Tomatoes -->
  <circle cx="32" cy="50" r="3" fill="#EF4444"/>
  <circle cx="38" cy="48" r="2.5" fill="#DC2626"/>
  
  <!-- Onions -->
  <ellipse cx="45" cy="52" rx="3" ry="2.5" fill="#F3E8FF" stroke="#A855F7" stroke-width="0.5"/>
  <ellipse cx="52" cy="49" rx="2.5" ry="2" fill="#FBBF24"/>
  
  <!-- Green Vegetables -->
  <path d="M42 45 Q45 42 48 45 Q45 48 42 45" fill="#16A34A"/>
  <path d="M50 52 Q53 49 56 52 Q53 55 50 52" fill="#15803D"/>
  
  <!-- Leafy Greens -->
  <path d="M28 48 Q26 45 24 48 Q26 50 28 48" fill="#22C55E"/>
  


</svg>